<svg xmlns="http://www.w3.org/2000/svg" width="1079.4" height="325.35" viewBox="0 0 1079.4 325.35" role="img" aria-label="Castillo Studio — wordmark (negativo)">
  <rect width="1079.4" height="325.35" fill="#0F172A"/>
  <path d="M62.700 0.750L62.700 0.750Q51 0.750 41.025-3.225Q31.050-7.200 23.700-14.400Q16.350-21.600 12.300-31.275Q8.250-40.950 8.250-52.500L8.250-52.500Q8.250-64.050 12.300-73.725Q16.350-83.400 23.775-90.600Q31.200-97.800 41.100-101.775Q51-105.750 62.700-105.750L62.700-105.750Q73.800-105.750 83.475-102.150Q93.150-98.550 100.050-91.200L100.050-91.200L95.250-86.250Q88.500-92.850 80.325-95.775Q72.150-98.700 63-98.700L63-98.700Q52.950-98.700 44.325-95.250Q35.700-91.800 29.325-85.500Q22.950-79.200 19.425-70.800Q15.900-62.400 15.900-52.500L15.900-52.500Q15.900-42.600 19.425-34.200Q22.950-25.800 29.325-19.500Q35.700-13.200 44.325-9.750Q52.950-6.300 63-6.300L63-6.300Q72.150-6.300 80.325-9.225Q88.500-12.150 95.250-18.900L95.250-18.900L100.050-13.950Q93.150-6.600 83.475-2.925Q73.800 0.750 62.700 0.750Z" fill="#F8FAFC" transform="translate(539.7 180.75) translate(-472.95 0)"/>
  <path d="M -575 1000 L 0 0 L 575 1000 L 490.957 1000 L 0 146.161 L -490.957 1000 Z" fill="#F8FAFC" transform="translate(539.7 180.75) translate(-472.95 0) translate(197.775 -105) scale(0.105)"/>
  <circle cx="264.525" cy="151.35" r="7.161" fill="#3B82F6"/>
  <path d="M335.550 0.750L335.550 0.750Q323.850 0.750 313.425-3.225Q303-7.200 297.300-13.500L297.300-13.500L300.750-19.200Q306.150-13.650 315.525-9.825Q324.900-6 335.400-6L335.400-6Q345.900-6 352.575-8.775Q359.250-11.550 362.475-16.200Q365.700-20.850 365.700-26.550L365.700-26.550Q365.700-33.300 362.100-37.350Q358.500-41.400 352.650-43.800Q346.800-46.200 339.900-47.850Q333-49.500 325.950-51.375Q318.900-53.250 313.050-56.250Q307.200-59.250 303.675-64.425Q300.150-69.600 300.150-77.850L300.150-77.850Q300.150-85.350 304.050-91.650Q307.950-97.950 316.200-101.850Q324.450-105.750 337.350-105.750L337.350-105.750Q346.050-105.750 354.525-103.200Q363-100.650 369-96.300L369-96.300L366.150-90.150Q359.550-94.650 351.975-96.825Q344.400-99 337.350-99L337.350-99Q327.300-99 320.700-96.150Q314.100-93.300 310.950-88.575Q307.800-83.850 307.800-78L307.800-78Q307.800-71.250 311.325-67.200Q314.850-63.150 320.700-60.750Q326.550-58.350 333.600-56.700Q340.650-55.050 347.550-53.175Q354.450-51.300 360.300-48.300Q366.150-45.300 369.750-40.200Q373.350-35.100 373.350-27L373.350-27Q373.350-19.650 369.300-13.275Q365.250-6.900 356.925-3.075Q348.600 0.750 335.550 0.750Z" fill="#F8FAFC" transform="translate(539.7 180.75) translate(-472.95 0)"/>
  <path d="M454.050 0L446.400 0L446.400-98.100L408.600-98.100L408.600-105L491.850-105L491.850-98.100L454.050-98.100L454.050 0Z" fill="#F8FAFC" transform="translate(539.7 180.75) translate(-472.95 0)"/>
  <path d="M545.400 0L537.750 0L537.750-105L545.400-105L545.400 0Z" fill="#F8FAFC" transform="translate(539.7 180.75) translate(-472.95 0)"/>
  <path d="M677.100 0L609 0L609-105L616.650-105L616.650-6.900L677.100-6.900L677.100 0Z" fill="#F8FAFC" transform="translate(539.7 180.75) translate(-472.95 0)"/>
  <path d="M791.850 0L723.750 0L723.750-105L731.400-105L731.400-6.900L791.850-6.900L791.850 0Z" fill="#F8FAFC" transform="translate(539.7 180.75) translate(-472.95 0)"/>
  <path d="M883.050 0.750L883.050 0.750Q871.350 0.750 861.375-3.225Q851.400-7.200 843.975-14.475Q836.550-21.750 832.500-31.425Q828.450-41.100 828.450-52.500L828.450-52.500Q828.450-63.900 832.500-73.575Q836.550-83.250 843.975-90.525Q851.400-97.800 861.375-101.775Q871.350-105.750 883.050-105.750L883.050-105.750Q894.750-105.750 904.725-101.775Q914.700-97.800 922.050-90.600Q929.400-83.400 933.525-73.725Q937.650-64.050 937.650-52.500L937.650-52.500Q937.650-40.950 933.525-31.275Q929.400-21.600 922.050-14.400Q914.700-7.200 904.725-3.225Q894.750 0.750 883.050 0.750ZM883.050-6.300L883.050-6.300Q893.100-6.300 901.650-9.750Q910.200-13.200 916.500-19.500Q922.800-25.800 926.325-34.200Q929.850-42.600 929.850-52.500L929.850-52.500Q929.850-62.550 926.325-70.875Q922.800-79.200 916.500-85.500Q910.200-91.800 901.650-95.250Q893.100-98.700 883.050-98.700L883.050-98.700Q873-98.700 864.450-95.250Q855.900-91.800 849.525-85.500Q843.150-79.200 839.625-70.875Q836.100-62.550 836.100-52.500L836.100-52.500Q836.100-42.600 839.625-34.200Q843.150-25.800 849.525-19.500Q855.900-13.200 864.450-9.750Q873-6.300 883.050-6.300Z" fill="#F8FAFC" transform="translate(539.7 180.75) translate(-472.95 0)"/>
  <path d="M18.360 0.300L18.360 0.300Q13.680 0.300 9.510-1.290Q5.340-2.880 3.060-5.400L3.060-5.400L4.440-7.680Q6.600-5.460 10.350-3.930Q14.100-2.400 18.300-2.400L18.300-2.400Q22.500-2.400 25.170-3.510Q27.840-4.620 29.130-6.480Q30.420-8.340 30.420-10.620L30.420-10.620Q30.420-13.320 28.980-14.940Q27.540-16.560 25.200-17.520Q22.860-18.480 20.100-19.140Q17.340-19.800 14.520-20.550Q11.700-21.300 9.360-22.500Q7.020-23.700 5.610-25.770Q4.200-27.840 4.200-31.140L4.200-31.140Q4.200-34.140 5.760-36.660Q7.320-39.180 10.620-40.740Q13.920-42.300 19.080-42.300L19.080-42.300Q22.560-42.300 25.950-41.280Q29.340-40.260 31.740-38.520L31.740-38.520L30.600-36.060Q27.960-37.860 24.930-38.730Q21.900-39.600 19.080-39.600L19.080-39.600Q15.060-39.600 12.420-38.460Q9.780-37.320 8.520-35.430Q7.260-33.540 7.260-31.200L7.260-31.200Q7.260-28.500 8.670-26.880Q10.080-25.260 12.420-24.300Q14.760-23.340 17.580-22.680Q20.400-22.020 23.160-21.270Q25.920-20.520 28.260-19.320Q30.600-18.120 32.040-16.080Q33.480-14.040 33.480-10.800L33.480-10.800Q33.480-7.860 31.860-5.310Q30.240-2.760 26.910-1.230Q23.580 0.300 18.360 0.300Z" fill="#F8FAFC" transform="translate(539.7 180.75) translate(-260.123 69.3)"/>
  <path d="M111.921 0L108.861 0L108.861-39.240L93.741-39.240L93.741-42L127.041-42L127.041-39.240L111.921-39.240L111.921 0Z" fill="#F8FAFC" transform="translate(539.7 180.75) translate(-260.123 69.3)"/>
  <path d="M208.002 0.300L208.002 0.300Q200.202 0.300 195.702-4.260Q191.202-8.820 191.202-17.820L191.202-17.820L191.202-42L194.262-42L194.262-17.940Q194.262-10.080 197.862-6.300Q201.462-2.520 208.062-2.520L208.062-2.520Q214.602-2.520 218.202-6.300Q221.802-10.080 221.802-17.940L221.802-17.940L221.802-42L224.862-42L224.862-17.820Q224.862-8.820 220.362-4.260Q215.862 0.300 208.002 0.300Z" fill="#F8FAFC" transform="translate(539.7 180.75) translate(-260.123 69.3)"/>
  <path d="M312.723 0L296.103 0L296.103-42L312.723-42Q319.383-42 324.423-39.300Q329.463-36.600 332.253-31.860Q335.043-27.120 335.043-21L335.043-21Q335.043-14.880 332.253-10.140Q329.463-5.400 324.423-2.700Q319.383 0 312.723 0L312.723 0ZM299.163-39.240L299.163-2.760L312.483-2.760Q318.423-2.760 322.803-5.100Q327.183-7.440 329.583-11.550Q331.983-15.660 331.983-21L331.983-21Q331.983-26.340 329.583-30.450Q327.183-34.560 322.803-36.900Q318.423-39.240 312.483-39.240L312.483-39.240L299.163-39.240Z" fill="#F8FAFC" transform="translate(539.7 180.75) translate(-260.123 69.3)"/>
  <path d="M405.684 0L402.624 0L402.624-42L405.684-42L405.684 0Z" fill="#F8FAFC" transform="translate(539.7 180.75) translate(-260.123 69.3)"/>
  <path d="M495.105 0.300L495.105 0.300Q490.425 0.300 486.435-1.290Q482.445-2.880 479.475-5.790Q476.505-8.700 474.885-12.570Q473.265-16.440 473.265-21L473.265-21Q473.265-25.560 474.885-29.430Q476.505-33.300 479.475-36.210Q482.445-39.120 486.435-40.710Q490.425-42.300 495.105-42.300L495.105-42.300Q499.785-42.300 503.775-40.710Q507.765-39.120 510.705-36.240Q513.645-33.360 515.295-29.490Q516.945-25.620 516.945-21L516.945-21Q516.945-16.380 515.295-12.510Q513.645-8.640 510.705-5.760Q507.765-2.880 503.775-1.290Q499.785 0.300 495.105 0.300ZM495.105-2.520L495.105-2.520Q499.125-2.520 502.545-3.900Q505.965-5.280 508.485-7.800Q511.005-10.320 512.415-13.680Q513.825-17.040 513.825-21L513.825-21Q513.825-25.020 512.415-28.350Q511.005-31.680 508.485-34.200Q505.965-36.720 502.545-38.100Q499.125-39.480 495.105-39.480L495.105-39.480Q491.085-39.480 487.665-38.100Q484.245-36.720 481.695-34.200Q479.145-31.680 477.735-28.350Q476.325-25.020 476.325-21L476.325-21Q476.325-17.040 477.735-13.680Q479.145-10.320 481.695-7.800Q484.245-5.280 487.665-3.900Q491.085-2.520 495.105-2.520Z" fill="#F8FAFC" transform="translate(539.7 180.75) translate(-260.123 69.3)"/>
</svg>
